<svg width="153" height="153" viewBox="0 0 153 153" fill="none" xmlns="http://www.w3.org/2000/svg">
<rect x="6" y="42" width="141" height="88" rx="15" fill="#8B8B8B"/>
<circle cx="55.5" cy="85.5" r="27.5" fill="#4BADD8"/>
<mask id="mask0_21_545" style="mask-type:alpha" maskUnits="userSpaceOnUse" x="28" y="58" width="55" height="55">
<circle cx="55.5" cy="85.5" r="27.5" fill="#64B1D2"/>
</mask>
<g mask="url(#mask0_21_545)">
<path d="M107.148 86.3634C105.707 106.47 81.5297 127.638 64.1772 126.395C46.8247 125.152 67.9914 115.139 70.2426 83.7192C72.1007 57.7856 46.5574 44.9273 63.9099 46.1706C81.2623 47.4139 108.589 66.2566 107.148 86.3634Z" fill="#69BBDE"/>
</g>
<rect x="5" y="41" width="143" height="90" rx="15" stroke="black" stroke-width="4"/>
<rect x="117" y="54" width="15" height="13" fill="#CDCDCD"/>
<rect x="114" y="27" width="18" height="12" fill="#666666"/>
<rect x="20" y="28" width="58" height="12" fill="#666666"/>
<circle cx="55.5" cy="85.5" r="28.5" stroke="black" stroke-width="4"/>
<rect x="115" y="55" width="18" height="12" rx="4" stroke="black" stroke-width="4"/>
<path d="M116 26H130C132.209 26 134 27.7909 134 30V40H112V30C112 27.7909 113.791 26 116 26Z" stroke="black" stroke-width="4"/>
<path d="M26 26H72C74.2091 26 76 27.7909 76 30V40H22V30C22 27.7909 23.7909 26 26 26Z" stroke="black" stroke-width="4"/>
</svg>
