<svg width="65" height="250" viewBox="0 0 65 250" fill="none" xmlns="http://www.w3.org/2000/svg">
<path d="M47.9524 192C56.3812 197.228 62 206.605 62 217.302C62 233.704 48.7924 247 32.5 247C16.2076 247 3 233.704 3 217.302C3 206.605 8.61884 197.228 17.0476 192" stroke="black" stroke-width="5" stroke-linecap="round"/>
<path d="M47 192V18C47 9.71573 40.2843 3 32 3V3C23.7157 3 17 9.71573 17 18V192" stroke="black" stroke-width="5" stroke-linecap="round" stroke-linejoin="round"/>
<path d="M32 29L32 209" stroke="#FF431D" stroke-width="13" stroke-linecap="round"/>
<circle cx="32.5" cy="217.5" r="21.5" fill="#FF431D"/>
<path d="M35 17.5C33.6193 17.5 32.5 18.6193 32.5 20C32.5 21.3807 33.6193 22.5 35 22.5V17.5ZM47 17.5H35V22.5H47V17.5Z" fill="black"/>
<path d="M35 33.5C33.6193 33.5 32.5 34.6193 32.5 36C32.5 37.3807 33.6193 38.5 35 38.5V33.5ZM47 33.5H35V38.5H47V33.5Z" fill="black"/>
<path d="M35 49.5C33.6193 49.5 32.5 50.6193 32.5 52C32.5 53.3807 33.6193 54.5 35 54.5V49.5ZM47 49.5H35V54.5H47V49.5Z" fill="black"/>
<path d="M29 65.5C27.6193 65.5 26.5 66.6193 26.5 68C26.5 69.3807 27.6193 70.5 29 70.5V65.5ZM47 65.5H29V70.5H47V65.5Z" fill="black"/>
<path d="M35 81.5C33.6193 81.5 32.5 82.6193 32.5 84C32.5 85.3807 33.6193 86.5 35 86.5V81.5ZM47 81.5H35V86.5H47V81.5Z" fill="black"/>
<path d="M35 97.5C33.6193 97.5 32.5 98.6193 32.5 100C32.5 101.381 33.6193 102.5 35 102.5V97.5ZM47 97.5H35V102.5H47V97.5Z" fill="black"/>
<path d="M35 113.5C33.6193 113.5 32.5 114.619 32.5 116C32.5 117.381 33.6193 118.5 35 118.5V113.5ZM47 113.5H35V118.5H47V113.5Z" fill="black"/>
<path d="M29 129.5C27.6193 129.5 26.5 130.619 26.5 132C26.5 133.381 27.6193 134.5 29 134.5L29 129.5ZM47 129.5L29 129.5L29 134.5L47 134.5L47 129.5Z" fill="black"/>
<path d="M35 145.5C33.6193 145.5 32.5 146.619 32.5 148C32.5 149.381 33.6193 150.5 35 150.5V145.5ZM47 145.5H35V150.5H47V145.5Z" fill="black"/>
<path d="M35 161.5C33.6193 161.5 32.5 162.619 32.5 164C32.5 165.381 33.6193 166.5 35 166.5V161.5ZM47 161.5H35V166.5H47V161.5Z" fill="black"/>
<path d="M35 177.5C33.6193 177.5 32.5 178.619 32.5 180C32.5 181.381 33.6193 182.5 35 182.5V177.5ZM47 177.5H35V182.5H47V177.5Z" fill="black"/>
</svg>
