<svg width="247" height="273" viewBox="0 0 247 273" fill="none" xmlns="http://www.w3.org/2000/svg">
<path d="M124.62 120.322H85.803L3.99997 269.322H243.279L163.423 120.322H124.62Z" fill="#212121" stroke="black" stroke-width="4"/>
<path d="M233.433 270.323L155.12 121.322" stroke="#E2E2E2" stroke-width="4" stroke-linecap="round"/>
<path d="M17.62 267.822L95.12 119.822" stroke="#E2E2E2" stroke-width="4" stroke-linecap="round"/>
<path d="M124.62 120.322H85.803L3.99997 269.322H243.279L163.423 120.322H124.62Z" stroke="black" stroke-width="4"/>
<path d="M25.62 148.322V191.322H55.62V148.322C55.62 140.038 48.904 133.322 40.62 133.322C32.336 133.322 25.62 140.038 25.62 148.322Z" fill="#565656" stroke="black" stroke-width="4"/>
<path d="M37.618 147.986L107.054 7.17507C109.008 3.21239 113.804 1.58408 117.767 3.53813C121.73 5.49219 123.358 10.2887 121.404 14.2513L51.9682 155.062C50.0141 159.025 45.2176 160.653 41.255 158.699C37.2923 156.745 35.664 151.948 37.618 147.986Z" fill="#D9D9D9" stroke="black" stroke-width="4"/>
<mask id="mask0_102_47" style="mask-type:alpha" maskUnits="userSpaceOnUse" x="34" y="0" width="91" height="162">
<path d="M37.618 147.986L107.054 7.17507C109.008 3.21239 113.804 1.58408 117.767 3.53813C121.73 5.49219 123.358 10.2887 121.404 14.2513L51.9681 155.062C50.014 159.025 45.2176 160.653 41.2549 158.699C37.2922 156.745 35.6639 151.948 37.618 147.986Z" fill="#D9D9D9" stroke="black" stroke-width="4"/>
</mask>
<g mask="url(#mask0_102_47)">
<path d="M103.363 6.1031L121.605 39.2025" stroke="#B82727" stroke-width="10"/>
<path d="M92.475 28.1829L110.717 61.2823" stroke="#B82727" stroke-width="10"/>
<path d="M81.587 50.2627L99.8293 83.3621" stroke="#B82727" stroke-width="10"/>
<path d="M70.699 72.3425L88.9413 105.442" stroke="#B82727" stroke-width="10"/>
<path d="M59.811 94.4223L78.0533 127.522" stroke="#B82727" stroke-width="10"/>
<path d="M48.923 116.502L67.1653 149.601" stroke="#B82727" stroke-width="10"/>
<path d="M38.036 138.582L56.2784 171.681" stroke="#B82727" stroke-width="10"/>
</g>
<path d="M37.618 147.986L107.054 7.17507C109.008 3.21239 113.804 1.58408 117.767 3.53813C121.73 5.49219 123.358 10.2887 121.404 14.2513L51.9682 155.062C50.0141 159.025 45.2176 160.653 41.255 158.699C37.2923 156.745 35.664 151.948 37.618 147.986Z" stroke="black" stroke-width="4"/>
</svg>
