<svg width="226" height="155" viewBox="0 0 226 88" fill="none" xmlns="http://www.w3.org/2000/svg">
<rect x="2" y="77" width="161" height="9" fill="#A97A34"/>
<path d="M18 61L177.5 63L163 77H2.5L18 61Z" fill="#A97A34"/>
<path d="M164 76.5L178 63.5V72.5L165.5 85L164 76.5Z" fill="#A97A34"/>
<path d="M2 77L163 77" stroke="black" stroke-width="4" stroke-linecap="round"/>
<path d="M17 62L178 62" stroke="black" stroke-width="4" stroke-linecap="round"/>
<path d="M2 86L164 86" stroke="black" stroke-width="4" stroke-linecap="round"/>
<path d="M163.586 76.5858L177.586 62.5858" stroke="black" stroke-width="4" stroke-linecap="round"/>
<path d="M164 86L178 72" stroke="black" stroke-width="4" stroke-linecap="round"/>
<path d="M2 76.5858L16 62.5858" stroke="black" stroke-width="4" stroke-linecap="round"/>
<path d="M164 77L164 86" stroke="black" stroke-width="4" stroke-linecap="round"/>
<path d="M178 63L178 72" stroke="black" stroke-width="4" stroke-linecap="round"/>
<path d="M2 77L2 86" stroke="black" stroke-width="4" stroke-linecap="round"/>
<rect x="48" y="27" width="161" height="9" fill="#A97A34"/>
<path d="M64 11L223.5 13L209 27H48.5L64 11Z" fill="#A97A34"/>
<path d="M210 26.5L224 13.5V22.5L211.5 35L210 26.5Z" fill="#A97A34"/>
<path d="M48 27L209 27" stroke="black" stroke-width="4" stroke-linecap="round"/>
<path d="M63 12L224 12" stroke="black" stroke-width="4" stroke-linecap="round"/>
<path d="M48 36L210 36" stroke="black" stroke-width="4" stroke-linecap="round"/>
<path d="M209.586 26.5858L223.586 12.5858" stroke="black" stroke-width="4" stroke-linecap="round"/>
<path d="M210 36L224 22" stroke="black" stroke-width="4" stroke-linecap="round"/>
<path d="M48 26.5858L62 12.5858" stroke="black" stroke-width="4" stroke-linecap="round"/>
<path d="M210 27L210 36" stroke="black" stroke-width="4" stroke-linecap="round"/>
<path d="M224 13L224 22" stroke="black" stroke-width="4" stroke-linecap="round"/>
<path d="M48 27L48 36" stroke="black" stroke-width="4" stroke-linecap="round"/>
<path d="M85 1L110.5 2.5L43.5 71H17L85 1Z" fill="#BE8B3E"/>
<rect x="16" y="71" width="28" height="8" fill="#BE8B3E"/>
<path d="M44 72L109.5 2.5L110.5 10L44 78.5V72Z" fill="#BE8B3E"/>
<path d="M44 71V79M109.5 2.5V10.5" stroke="black" stroke-width="4" stroke-linecap="round"/>
<path d="M16 71V79" stroke="black" stroke-width="4" stroke-linecap="round"/>
<line x1="15" y1="71" x2="44" y2="71" stroke="black" stroke-width="4"/>
<line x1="15" y1="79" x2="44" y2="79" stroke="black" stroke-width="4"/>
<path d="M86 2H108" stroke="black" stroke-width="4" stroke-linecap="round"/>
<path d="M44 71L108.5 2.5" stroke="black" stroke-width="4" stroke-linecap="round"/>
<path d="M45 78.5L109.5 10" stroke="black" stroke-width="4" stroke-linecap="round"/>
<path d="M16 71L85 2" stroke="black" stroke-width="4" stroke-linecap="round"/>
<path d="M134 1L159.5 2.5L92.5 71H66L134 1Z" fill="#BE8B3E"/>
<rect x="65" y="71" width="28" height="8" fill="#BE8B3E"/>
<path d="M93 72L158.5 2.5L159.5 10L93 78.5V72Z" fill="#BE8B3E"/>
<path d="M93 71V79M158.5 2.5V10.5" stroke="black" stroke-width="4" stroke-linecap="round"/>
<path d="M65 71V79" stroke="black" stroke-width="4" stroke-linecap="round"/>
<line x1="64" y1="71" x2="93" y2="71" stroke="black" stroke-width="4"/>
<line x1="64" y1="79" x2="93" y2="79" stroke="black" stroke-width="4"/>
<path d="M135 2H157" stroke="black" stroke-width="4" stroke-linecap="round"/>
<path d="M93 71L157.5 2.5" stroke="black" stroke-width="4" stroke-linecap="round"/>
<path d="M94 78.5L158.5 10" stroke="black" stroke-width="4" stroke-linecap="round"/>
<path d="M65 71L134 2" stroke="black" stroke-width="4" stroke-linecap="round"/>
<path d="M190 1L215.5 2.5L148.5 71H122L190 1Z" fill="#BE8B3E"/>
<rect x="121" y="71" width="28" height="8" fill="#BE8B3E"/>
<path d="M149 72L214.5 2.5L215.5 10L149 78.5V72Z" fill="#BE8B3E"/>
<path d="M149 71V79M214.5 2.5V10.5" stroke="black" stroke-width="4" stroke-linecap="round"/>
<path d="M121 71V79" stroke="black" stroke-width="4" stroke-linecap="round"/>
<line x1="120" y1="71" x2="149" y2="71" stroke="black" stroke-width="4"/>
<line x1="120" y1="79" x2="149" y2="79" stroke="black" stroke-width="4"/>
<path d="M191 2H213" stroke="black" stroke-width="4" stroke-linecap="round"/>
<path d="M149 71L213.5 2.5" stroke="black" stroke-width="4" stroke-linecap="round"/>
<path d="M150 78.5L214.5 10" stroke="black" stroke-width="4" stroke-linecap="round"/>
<path d="M121 71L190 2" stroke="black" stroke-width="4" stroke-linecap="round"/>
<ellipse cx="29.5" cy="65.5" rx="2.5" ry="1.5" fill="#898989"/>
<ellipse cx="78.5" cy="65.5" rx="2.5" ry="1.5" fill="#898989"/>
<ellipse cx="134.5" cy="65.5" rx="2.5" ry="1.5" fill="#898989"/>
<ellipse cx="192.5" cy="6.5" rx="2.5" ry="1.5" fill="#898989"/>
<ellipse cx="135.5" cy="6.5" rx="2.5" ry="1.5" fill="#898989"/>
<ellipse cx="87.5" cy="6.5" rx="2.5" ry="1.5" fill="#898989"/>
<ellipse cx="40.5" cy="65.5" rx="2.5" ry="1.5" fill="#898989"/>
<ellipse cx="89.5" cy="65.5" rx="2.5" ry="1.5" fill="#898989"/>
<ellipse cx="145.5" cy="65.5" rx="2.5" ry="1.5" fill="#898989"/>
<ellipse cx="203.5" cy="6.5" rx="2.5" ry="1.5" fill="#898989"/>
<ellipse cx="146.5" cy="6.5" rx="2.5" ry="1.5" fill="#898989"/>
<ellipse cx="98.5" cy="6.5" rx="2.5" ry="1.5" fill="#898989"/>
</svg>
