<svg width="145" height="150" viewBox="0 0 145 150" fill="none" xmlns="http://www.w3.org/2000/svg">
<path d="M26.5001 48.5C26.5001 23.0949 47.095 2.5 72.5001 2.5C97.9052 2.5 118.5 23.0949 118.5 48.5C118.5 61.0754 112.296 71.5039 105.641 81.9517C105.315 82.4635 104.988 82.9759 104.66 83.4888C101.695 88.1313 98.6991 92.8201 96.3909 97.5827C94.1735 102.158 92.5225 106.93 92.1037 112H92.0807H92.0121H91.9433H91.8743H91.805H91.7355H91.6658H91.5958H91.5256H91.4552H91.3845H91.3136H91.2425H91.1712H91.0997H91.0279H90.9559H90.8837H90.8113H90.7387H90.6658H90.5928H90.5195H90.446H90.3723H90.2984H90.2243H90.15H90.0754H90.0007H89.9258H89.8506H89.7753H89.6998H89.6241H89.5481H89.472H89.3957H89.3192H89.2425H89.1656H89.0885H89.0112H88.9338H88.8561H88.7783H88.7003H88.6221H88.5437H88.4652H88.3864H88.3075H88.2284H88.1492H88.0697H87.9901H87.9103H87.8304H87.7502H87.6699H87.5895H87.5089H87.4281H87.3471H87.266H87.1847H87.1033H87.0217H86.9399H86.858H86.7759H86.6937H86.6113H86.5288H86.4461H86.3633H86.2803H86.1972H86.1139H86.0305H85.947H85.8633H85.7794H85.6954H85.6113H85.5271H85.4427H85.3582H85.2735H85.1887H85.1038H85.0187H84.9335H84.8482H84.7628H84.6772H84.5915H84.5057H84.4197H84.3337H84.2475H84.1612H84.0748H83.9883H83.9016H83.8148H83.728H83.641H83.5539H83.4667H83.3794H83.2919H83.2044H83.1168H83.029H82.9412H82.8533H82.7652H82.6771H82.5889H82.5005H82.4121H82.3236H82.235H82.1463H82.0575H81.9686H81.8796H81.7906H81.7014H81.6122H81.5229H81.4335H81.344H81.2545H81.1648H81.0751H80.9853H80.8955H80.8055H80.7155H80.6255H80.5353H80.4451H80.3548H80.2644H80.174H80.0835H79.993H79.9024H79.8117H79.721H79.6302H79.5394H79.4485H79.3575H79.2665H79.1754H79.0843H78.9932H78.902H78.8107H78.7194H78.628H78.5366H78.4452H78.3537H78.2622H78.1706H78.079H77.9874H77.8957H77.804H77.7123H77.6205H77.5287H77.4369H77.345H77.2531H77.1612H77.0693H76.9773H76.8853H76.7933H76.7013H76.6092H76.5171H76.4251H76.333H76.2408H76.1487H76.0566H75.9644H75.8722H75.7801H75.6879H75.5957H75.5035H75.4113H75.3191H75.2269H75.1347H75.0425H74.9503H74.8581H74.7659H74.6737H74.5816H74.4894H74.3972H74.3051H74.2129H74.1208H74.0287H73.9366H73.8445H73.7524H73.6604H73.5684H73.4764H73.3844H73.2924H73.2005H73.1086H73.0167H72.9248H72.833H72.7412H72.6494H72.5577H72.466H72.3743H72.2827H72.1911H72.0996H72.008H71.9166H71.8251H71.7337H71.6424H71.5511H71.4599H71.3687H71.2775H71.1864H71.0953H71.0043H70.9134H70.8225H70.7317H70.6409H70.5502H70.4595H70.3689H70.2784H70.1879H70.0975H70.0072H69.9169H69.8267H69.7366H69.6465H69.5565H69.4666H69.3767H69.287H69.1973H69.1076H69.0181H68.9286H68.8393H68.75H68.6608H68.5716H68.4826H68.3936H68.3048H68.216H68.1273H68.0387H67.9502H67.8618H67.7735H67.6853H67.5971H67.5091H67.4212H67.3334H67.2457H67.1581H67.0706H66.9832H66.8959H66.8087H66.7216H66.6346H66.5478H66.461H66.3744H66.2879H66.2015H66.1152H66.0291H65.943H65.8571H65.7713H65.6856H65.6001H65.5147H65.4294H65.3442H65.2592H65.1743H65.0895H65.0049H64.9204H64.836H64.7518H64.6677H64.5837H64.4999H64.4162H64.3327H64.2493H64.1661H64.083H64H63.9172H63.8346H63.7521H63.6697H63.5875H63.5055H63.4236H63.3419H63.2603H63.1789H63.0976H63.0165H62.9356H62.8549H62.7743H62.6938H62.6136H62.5335H62.4535H62.3738H62.2942H62.2148H62.1356H62.0565H61.9776H61.8989H61.8204H61.7421H61.6639H61.5859H61.5081H61.4305H61.3531H61.2759H61.1988H61.122H61.0453H60.9688H60.8925H60.8164H60.7406H60.6649H60.5894H60.5141H60.439H60.3641H60.2894H60.2149H60.1406H60.0665H59.9927H59.919H59.8456H59.7723H59.6993H59.6265H59.5539H59.4815H59.4094H59.3374H59.2657H59.1942H59.1229H59.0518H58.981H58.9104H58.84H58.7699H58.6999H58.6302H58.5608H58.4915H58.4225H58.3538H58.2852H58.217H58.1489H58.0811H58.0135H57.9462H57.8791H57.8123H57.7457H57.6793H57.6132H57.5473H57.4817H57.4164H57.3513H57.2864H57.2218H57.1575H57.0934H57.0296H56.9661H56.9028H56.8397H56.7769H56.7144H56.6522H56.5902H56.5285H56.4671H56.4059H56.4035C55.6699 102.511 50.8575 94.4968 45.5483 87.0488C43.5935 84.3066 41.5949 81.8117 39.6625 79.3995C32.6446 70.6392 26.5001 62.9691 26.5001 48.5Z" stroke="black" stroke-width="5"/>
<path d="M91.5 130.048C91.5 134.277 90.1437 138.791 87.3521 142.219C84.594 145.606 80.385 148 74.4634 148C62.7156 148 56.5 138.458 56.5 130.048L56.5 112.5H91.5V112.525V112.563V112.602V112.641V112.679V112.718V112.757V112.796V112.835V112.874V112.913V112.952V112.992V113.031V113.07V113.11V113.149V113.188V113.228V113.268V113.307V113.347V113.387V113.426V113.466V113.506V113.546V113.586V113.626V113.666V113.706V113.747V113.787V113.827V113.868V113.908V113.948V113.989V114.029V114.07V114.11V114.151V114.192V114.233V114.273V114.314V114.355V114.396V114.437V114.478V114.519V114.56V114.601V114.642V114.683V114.725V114.766V114.807V114.848V114.89V114.931V114.973V115.014V115.056V115.097V115.139V115.18V115.222V115.264V115.305V115.347V115.389V115.431V115.472V115.514V115.556V115.598V115.64V115.682V115.724V115.766V115.808V115.85V115.892V115.934V115.976V116.019V116.061V116.103V116.145V116.188V116.23V116.272V116.315V116.357V116.399V116.442V116.484V116.526V116.569V116.611V116.654V116.696V116.739V116.782V116.824V116.867V116.909V116.952V116.994V117.037V117.08V117.122V117.165V117.208V117.251V117.293V117.336V117.379V117.421V117.464V117.507V117.55V117.593V117.635V117.678V117.721V117.764V117.807V117.849V117.892V117.935V117.978V118.021V118.064V118.107V118.149V118.192V118.235V118.278V118.321V118.364V118.407V118.45V118.492V118.535V118.578V118.621V118.664V118.707V118.75V118.793V118.836V118.878V118.921V118.964V119.007V119.05V119.093V119.135V119.178V119.221V119.264V119.307V119.35V119.392V119.435V119.478V119.521V119.563V119.606V119.649V119.692V119.734V119.777V119.82V119.862V119.905V119.948V119.99V120.033V120.075V120.118V120.161V120.203V120.246V120.288V120.331V120.373V120.416V120.458V120.5V120.543V120.585V120.628V120.67V120.712V120.754V120.797V120.839V120.881V120.923V120.966V121.008V121.05V121.092V121.134V121.176V121.218V121.26V121.302V121.344V121.386V121.428V121.47V121.511V121.553V121.595V121.637V121.678V121.72V121.762V121.803V121.845V121.886V121.928V121.969V122.011V122.052V122.094V122.135V122.176V122.217V122.259V122.3V122.341V122.382V122.423V122.464V122.505V122.546V122.587V122.628V122.669V122.709V122.75V122.791V122.831V122.872V122.913V122.953V122.994V123.034V123.074V123.115V123.155V123.195V123.235V123.276V123.316V123.356V123.396V123.436V123.476V123.515V123.555V123.595V123.635V123.674V123.714V123.753V123.793V123.832V123.872V123.911V123.95V123.989V124.029V124.068V124.107V124.146V124.185V124.224V124.262V124.301V124.34V124.378V124.417V124.456V124.494V124.532V124.571V124.609V124.647V124.685V124.723V124.761V124.799V124.837V124.875V124.913V124.95V124.988V125.026V125.063V125.101V125.138V125.175V125.212V125.25V125.287V125.324V125.361V125.397V125.434V125.471V125.508V125.544V125.581V125.617V125.653V125.69V125.726V125.762V125.798V125.834V125.87V125.906V125.942V125.977V126.013V126.048V126.084V126.119V126.154V126.19V126.225V126.26V126.295V126.33V126.364V126.399V126.434V126.468V126.503V126.537V126.571V126.606V126.64V126.674V126.708V126.741V126.775V126.809V126.842V126.876V126.909V126.943V126.976V127.009V127.042V127.075V127.108V127.141V127.173V127.206V127.239V127.271V127.303V127.335V127.368V127.4V127.432V127.463V127.495V127.527V127.558V127.59V127.621V127.652V127.683V127.714V127.745V127.776V127.807V127.838V127.868V127.899V127.929V127.959V127.989V128.019V128.049V128.079V128.109V128.138V128.168V128.197V128.227V128.256V128.285V128.314V128.343V128.371V128.4V128.429V128.457V128.485V128.514V128.542V128.57V128.597V128.625V128.653V128.68V128.708V128.735V128.762V128.789V128.816V128.843V128.87V128.896V128.923V128.949V128.975V129.002V129.028V129.053V129.079V129.105V129.13V129.156V129.181V129.206V129.231V129.256V129.281V129.306V129.33V129.355V129.379V129.403V129.427V129.451V129.475V129.499V129.522V129.545V129.569V129.592V129.615V129.638V129.661V129.683V129.706V129.728V129.75V129.772V129.794V129.816V129.838V129.86V129.881V129.902V129.923V129.944V129.965V129.986V130.007V130.027V130.048Z" fill="#6F6F6F" stroke="black" stroke-width="3" stroke-linejoin="round"/>
<path d="M57 120L92 125.143M57 128.571L92 133.714M57 137.143L88.5 141.5" stroke="#939393" stroke-width="3"/>
<path d="M63.5 144L83 144.5" stroke="#AEAEAE" stroke-width="5"/>
<path d="M90.5 130.048C90.5 134.081 89.203 138.363 86.5767 141.588C84.0063 144.744 80.0808 147 74.4634 147C63.3876 147 57.5 138.034 57.5 130.048L57.5 113.5H90.5V113.506V113.546V113.586V113.626V113.666V113.706V113.747V113.787V113.827V113.868V113.908V113.948V113.989V114.029V114.07V114.11V114.151V114.192V114.233V114.273V114.314V114.355V114.396V114.437V114.478V114.519V114.56V114.601V114.642V114.683V114.725V114.766V114.807V114.848V114.89V114.931V114.973V115.014V115.056V115.097V115.139V115.18V115.222V115.264V115.305V115.347V115.389V115.431V115.472V115.514V115.556V115.598V115.64V115.682V115.724V115.766V115.808V115.85V115.892V115.934V115.976V116.019V116.061V116.103V116.145V116.188V116.23V116.272V116.315V116.357V116.399V116.442V116.484V116.526V116.569V116.611V116.654V116.696V116.739V116.782V116.824V116.867V116.909V116.952V116.994V117.037V117.08V117.122V117.165V117.208V117.251V117.293V117.336V117.379V117.421V117.464V117.507V117.55V117.593V117.635V117.678V117.721V117.764V117.807V117.849V117.892V117.935V117.978V118.021V118.064V118.107V118.149V118.192V118.235V118.278V118.321V118.364V118.407V118.45V118.492V118.535V118.578V118.621V118.664V118.707V118.75V118.793V118.836V118.878V118.921V118.964V119.007V119.05V119.093V119.135V119.178V119.221V119.264V119.307V119.35V119.392V119.435V119.478V119.521V119.563V119.606V119.649V119.692V119.734V119.777V119.82V119.862V119.905V119.948V119.99V120.033V120.075V120.118V120.161V120.203V120.246V120.288V120.331V120.373V120.416V120.458V120.5V120.543V120.585V120.628V120.67V120.712V120.754V120.797V120.839V120.881V120.923V120.966V121.008V121.05V121.092V121.134V121.176V121.218V121.26V121.302V121.344V121.386V121.428V121.47V121.511V121.553V121.595V121.637V121.678V121.72V121.762V121.803V121.845V121.886V121.928V121.969V122.011V122.052V122.094V122.135V122.176V122.217V122.259V122.3V122.341V122.382V122.423V122.464V122.505V122.546V122.587V122.628V122.669V122.709V122.75V122.791V122.831V122.872V122.913V122.953V122.994V123.034V123.074V123.115V123.155V123.195V123.235V123.276V123.316V123.356V123.396V123.436V123.476V123.515V123.555V123.595V123.635V123.674V123.714V123.753V123.793V123.832V123.872V123.911V123.95V123.989V124.029V124.068V124.107V124.146V124.185V124.224V124.262V124.301V124.34V124.378V124.417V124.456V124.494V124.532V124.571V124.609V124.647V124.685V124.723V124.761V124.799V124.837V124.875V124.913V124.95V124.988V125.026V125.063V125.101V125.138V125.175V125.212V125.25V125.287V125.324V125.361V125.397V125.434V125.471V125.508V125.544V125.581V125.617V125.653V125.69V125.726V125.762V125.798V125.834V125.87V125.906V125.942V125.977V126.013V126.048V126.084V126.119V126.154V126.19V126.225V126.26V126.295V126.33V126.364V126.399V126.434V126.468V126.503V126.537V126.571V126.606V126.64V126.674V126.708V126.741V126.775V126.809V126.842V126.876V126.909V126.943V126.976V127.009V127.042V127.075V127.108V127.141V127.173V127.206V127.239V127.271V127.303V127.335V127.368V127.4V127.432V127.463V127.495V127.527V127.558V127.59V127.621V127.652V127.683V127.714V127.745V127.776V127.807V127.838V127.868V127.899V127.929V127.959V127.989V128.019V128.049V128.079V128.109V128.138V128.168V128.197V128.227V128.256V128.285V128.314V128.343V128.371V128.4V128.429V128.457V128.485V128.514V128.542V128.57V128.597V128.625V128.653V128.68V128.708V128.735V128.762V128.789V128.816V128.843V128.87V128.896V128.923V128.949V128.975V129.002V129.028V129.053V129.079V129.105V129.13V129.156V129.181V129.206V129.231V129.256V129.281V129.306V129.33V129.355V129.379V129.403V129.427V129.451V129.475V129.499V129.522V129.545V129.569V129.592V129.615V129.638V129.661V129.683V129.706V129.728V129.75V129.772V129.794V129.816V129.838V129.86V129.881V129.902V129.923V129.944V129.965V129.986V130.007V130.027V130.048Z" stroke="black" stroke-width="5" stroke-linejoin="round"/>
<path d="M57 117L92 122.273M57 125.788L92 131.061M57 134.576L89.5 139.5" stroke="black" stroke-width="5"/>
<path fill-rule="evenodd" clip-rule="evenodd" d="M50.2384 38.2694C52.7934 36.2822 56.4356 35.1667 60.0221 35.5887C63.6728 36.0181 67.2401 38.0423 69.4829 42.2475C69.8335 42.905 70.0812 43.7536 70.2707 44.6724C70.4649 45.6133 70.6173 46.7269 70.7365 47.9715C70.9689 50.3983 71.083 53.4107 71.1105 56.7808C72.9296 56.8478 74.7623 56.858 76.549 56.8062C76.5753 53.6309 76.6786 50.7771 76.8847 48.4333C77.0032 47.0871 77.1575 45.8856 77.357 44.8757C77.5515 43.8909 77.808 42.985 78.1765 42.2941C80.4193 38.0889 83.9865 36.0647 87.6372 35.6353C91.2237 35.2133 94.8659 36.3288 97.4209 38.316C102.874 42.5574 102.519 51.2726 95.3538 56.2333C93.762 57.3353 91.178 58.103 88.2716 58.6488C85.6903 59.1336 82.6865 59.4718 79.5452 59.6685C79.5963 69.8492 80.2998 82.7711 81.0086 93.3484C81.3793 98.8805 81.7508 103.762 82.0296 107.26C82.169 109.009 82.2852 110.412 82.3665 111.377C82.4072 111.86 82.4391 112.233 82.4609 112.485L82.4941 112.868C82.4941 112.868 82.4941 112.868 80.9999 113C79.5057 113.131 79.5056 113.131 79.5056 113.131L79.5055 113.13L79.4719 112.743C79.45 112.489 79.4179 112.114 79.3771 111.629C79.2954 110.66 79.1789 109.252 79.0391 107.498C78.7595 103.991 78.387 99.0965 78.0153 93.549C77.3088 83.006 76.6026 70.0694 76.5459 59.8075C74.7596 59.8572 72.931 59.8476 71.1133 59.7828C71.0774 66.1814 70.7894 73.6116 70.4073 80.845C69.969 89.1415 69.4057 97.2005 68.952 103.184C68.7252 106.176 68.5257 108.65 68.3829 110.377C68.3115 111.24 68.2542 111.917 68.2148 112.377C68.1951 112.608 68.1798 112.784 68.1695 112.904L68.1538 113.084C68.1538 113.084 68.1537 113.085 66.6595 112.953C65.1652 112.822 65.1653 112.821 65.1653 112.821L65.1807 112.644C65.191 112.526 65.2061 112.351 65.2257 112.122C65.2649 111.664 65.3219 110.99 65.3931 110.13C65.5354 108.409 65.7344 105.942 65.9606 102.957C66.4132 96.9875 66.9748 88.9528 67.4115 80.6867C67.7956 73.4163 68.0821 65.9835 68.1142 59.6255C65.8892 59.471 63.7267 59.235 61.729 58.9262C59.2471 58.5425 56.9799 58.0402 55.1461 57.4243C54.12 57.0797 53.1374 56.6706 52.3159 56.1717L52.3055 56.1867C52.2027 56.1155 52.1014 56.0436 52.0014 55.9709C51.76 55.8086 51.5357 55.6373 51.3318 55.4564C45.1196 50.4094 45.0437 42.3097 50.2384 38.2694ZM53.2877 53.1816C53.2352 53.1324 53.1901 53.0851 53.1524 53.0397L53.1327 53.0561C48.2254 49.0209 48.7225 43.249 52.0803 40.6374C54.0253 39.1246 56.8831 38.24 59.6716 38.5681C62.3959 38.8886 65.0786 40.3645 66.8358 43.6593C66.9851 43.9393 67.1633 44.4578 67.3326 45.2786C67.4974 46.0772 67.6369 47.0754 67.7502 48.2575C67.9667 50.5179 68.0792 53.3667 68.109 56.6177C66.0421 56.4688 64.0375 56.2475 62.1874 55.9614C59.8047 55.5931 57.7179 55.1234 56.1012 54.5804C55.001 54.2109 54.2283 53.8423 53.7293 53.5183C53.5777 53.4076 53.4305 53.2953 53.2877 53.1816ZM87.7179 55.7004C85.3375 56.1474 82.5304 56.4695 79.5504 56.6621C79.5785 53.6005 79.68 50.8926 79.8732 48.6962C79.9863 47.411 80.1288 46.3245 80.3001 45.4571C80.4764 44.5645 80.6647 44.0037 80.8235 43.7059C82.5808 40.4111 85.2635 38.9352 87.9878 38.6147C90.7763 38.2866 93.634 39.1712 95.5791 40.684C99.1258 43.4426 99.4809 49.7273 93.6462 53.7667C92.6145 54.4809 90.5795 55.163 87.7179 55.7004Z" fill="black" stroke="black" stroke-width="2"/>
<path d="M20 65L7 76M18 52H3M18 35.5L5 27.5" stroke="black" stroke-width="5" stroke-linecap="round" stroke-linejoin="round"/>
<path d="M125.5 64.5L138.5 75.5M127.5 51.5H142.5M127.5 35L140.5 27" stroke="black" stroke-width="5" stroke-linecap="round"/>
</svg>
