<svg width="218" height="180" viewBox="0 0 218 180" fill="none" xmlns="http://www.w3.org/2000/svg">
<mask id="mask0_13_72" style="mask-type:alpha" maskUnits="userSpaceOnUse" x="0" y="81" width="79" height="99">
<path d="M76 140.889C76 160.972 59.6584 177.253 39.5 177.253C19.3416 177.253 3 160.972 3 140.889C3 120.805 21.6174 105.745 39.5 85C54.443 104.28 76 120.805 76 140.889Z" fill="#D9D9D9"/>
<path d="M76 140.889C76 160.972 59.6584 177.253 39.5 177.253C19.3416 177.253 3 160.972 3 140.889C3 120.805 21.6174 105.745 39.5 85C54.443 104.28 76 120.805 76 140.889Z" fill="#D9D9D9"/>
<path d="M76 140.889C76 160.972 59.6584 177.253 39.5 177.253C19.3416 177.253 3 160.972 3 140.889C3 120.805 21.6174 105.745 39.5 85C54.443 104.28 76 120.805 76 140.889Z" stroke="black" stroke-width="5"/>
</mask>
<g mask="url(#mask0_13_72)">
<rect x="-29" y="88" width="307" height="333" fill="#349EFF"/>
</g>
<mask id="mask1_13_72" style="mask-type:alpha" maskUnits="userSpaceOnUse" x="132" y="64" width="86" height="108">
<path d="M214.922 129.188C214.922 151.175 197.031 169 174.961 169C152.891 169 135 151.175 135 129.188C135 107.2 155.383 90.7116 174.961 68C191.321 89.1085 214.922 107.2 214.922 129.188Z" fill="#D9D9D9"/>
<path d="M214.922 129.188C214.922 151.175 197.031 169 174.961 169C152.891 169 135 151.175 135 129.188C135 107.2 155.383 90.7116 174.961 68C191.321 89.1085 214.922 107.2 214.922 129.188Z" fill="#D9D9D9"/>
<path d="M214.922 129.188C214.922 151.175 197.031 169 174.961 169C152.891 169 135 151.175 135 129.188C135 107.2 155.383 90.7116 174.961 68C191.321 89.1085 214.922 107.2 214.922 129.188Z" stroke="black" stroke-width="5"/>
</mask>
<g mask="url(#mask1_13_72)">
<rect x="-29" y="88" width="307" height="333" fill="#349EFF"/>
</g>
<mask id="mask2_13_72" style="mask-type:alpha" maskUnits="userSpaceOnUse" x="56" y="0" width="88" height="111">
<path d="M141 67.1526C141 89.712 122.644 108 100 108C77.3563 108 59 89.712 59 67.1526C59 44.5932 79.9128 27.6759 100 4.37363C116.785 26.031 141 44.5932 141 67.1526Z" fill="#D9D9D9"/>
<path d="M141 67.1526C141 89.712 122.644 108 100 108C77.3563 108 59 89.712 59 67.1526C59 44.5932 79.9128 27.6759 100 4.37363C116.785 26.031 141 44.5932 141 67.1526Z" fill="#D9D9D9"/>
<path d="M141 67.1526C141 89.712 122.644 108 100 108C77.3563 108 59 89.712 59 67.1526C59 44.5932 79.9128 27.6759 100 4.37363C116.785 26.031 141 44.5932 141 67.1526Z" stroke="black" stroke-width="5"/>
</mask>
<g mask="url(#mask2_13_72)">
<rect x="-29" y="88" width="307" height="333" fill="#349EFF"/>
</g>
<path d="M76 140.889C76 160.972 59.6584 177.253 39.5 177.253C19.3416 177.253 3 160.972 3 140.889C3 120.805 21.6174 105.745 39.5 85C54.443 104.28 76 120.805 76 140.889Z" stroke="black" stroke-width="5"/>
<path d="M141 67.1526C141 89.712 122.644 108 100 108C77.3563 108 59 89.712 59 67.1526C59 44.5932 79.9128 27.6759 100 4.37363C116.785 26.031 141 44.5932 141 67.1526Z" stroke="black" stroke-width="5"/>
<path d="M214.922 129.188C214.922 151.175 197.031 169 174.961 169C152.891 169 135 151.175 135 129.188C135 107.2 155.383 90.7116 174.961 68C191.321 89.1085 214.922 107.2 214.922 129.188Z" stroke="black" stroke-width="5"/>
</svg>
