<svg width="130" height="133" viewBox="0 0 130 133" fill="none" xmlns="http://www.w3.org/2000/svg">
<path d="M0 124C0 117.925 4.92487 113 11 113H119C125.075 113 130 117.925 130 124V133H0V124Z" fill="#222222"/>
<path d="M11 115H119C123.971 115 128 119.029 128 124V131H2V124C2 119.029 6.02944 115 11 115Z" stroke="black" stroke-width="4"/>
<path d="M29.0623 9.32356C29.8895 3.95914 34.5059 0 39.9338 0H89.6529C95.0428 0 99.6387 3.90535 100.509 9.22452L116.5 107H14L29.0623 9.32356Z" fill="#681C1C"/>
<path d="M39.9338 2H89.6529C94.0628 2 97.8231 5.19528 98.5349 9.54734L114.146 105H16.3321L31.0389 9.62836C31.7157 5.2393 35.4928 2 39.9338 2Z" stroke="black" stroke-width="4"/>
</svg>
