<svg width="166" height="134" viewBox="0 0 166 134" fill="none" xmlns="http://www.w3.org/2000/svg">
<path d="M18 125C18 118.925 22.9249 114 29 114H137C143.075 114 148 118.925 148 125V134H18V125Z" fill="#222222"/>
<path d="M29 116H137C141.971 116 146 120.029 146 125V132H20V125C20 120.029 24.0294 116 29 116Z" stroke="black" stroke-width="4"/>
<path d="M47.0623 10.3236C47.8895 4.95914 52.5059 1 57.9338 1H107.653C113.043 1 117.639 4.90535 118.509 10.2245L134.5 108H32L47.0623 10.3236Z" fill="#681C1C"/>
<path d="M47.0623 10.3236C47.8895 4.95914 52.5059 1 57.9338 1H107.653C113.043 1 117.639 4.90535 118.509 10.2245L134.5 108H32L47.0623 10.3236Z" fill="#C22626"/>
<path d="M30.2737 54.5419L10 75" stroke="#C22626" stroke-width="4" stroke-linecap="round"/>
<path d="M33.2737 21.4581L10.2737 2.45807" stroke="#C22626" stroke-width="4" stroke-linecap="round"/>
<path d="M32 39L2 39" stroke="#C22626" stroke-width="4" stroke-linecap="round"/>
<path d="M135 54.0839L155.274 74.5419" stroke="#C22626" stroke-width="4" stroke-linecap="round"/>
<path d="M132 21L155 2" stroke="#C22626" stroke-width="4" stroke-linecap="round"/>
<path d="M133.274 38.5419L163.274 38.5419" stroke="#C22626" stroke-width="4" stroke-linecap="round"/>
<mask id="mask0_21_419" style="mask-type:alpha" maskUnits="userSpaceOnUse" x="29" y="4" width="103" height="107">
<path d="M54.9338 6H104.653C109.063 6 112.823 9.19528 113.535 13.5473L129.146 109H31.3321L46.0389 13.6284C46.7157 9.2393 50.4928 6 54.9338 6Z" stroke="black" stroke-width="4"/>
</mask>
<g mask="url(#mask0_21_419)">
<rect x="103.313" y="-42.7462" width="96" height="148.956" transform="rotate(-9.23201 103.313 -42.7462)" fill="#D9D9D9"/>
</g>
<path d="M57.9338 3H107.653C112.063 3 115.823 6.19528 116.535 10.5473L132.146 106H34.3321L49.0389 10.6284C49.7157 6.2393 53.4928 3 57.9338 3Z" stroke="black" stroke-width="4"/>
</svg>
