<?xml version="1.0" encoding="utf-8"?>
<!-- Generator: Adobe Illustrator 26.0.0, SVG Export Plug-In . SVG Version: 6.00 Build 0)  -->
<svg version="1.1" id="Camada_1" xmlns="http://www.w3.org/2000/svg" xmlns:xlink="http://www.w3.org/1999/xlink" x="0px" y="0px"
	 viewBox="0 0 119 146" style="enable-background:new 0 0 119 146;" xml:space="preserve">
<style type="text/css">
	.st0{fill:#212529;}
	.st1{fill:url(#SVGID_1_);}
	.st2{fill:none;stroke:#212529;stroke-width:2;}
	.st3{fill:#E3E3E3;}
</style>
<path class="st0" d="M58.5,0L0,24.5v27l56,25v14l-56-28v20l56,26v14l-56-25v18l56,23l63-30v-86L58.5,0z"/>
<linearGradient id="SVGID_1_" gradientUnits="userSpaceOnUse" x1="45.6828" y1="78.3728" x2="142.1828" y2="30.3728" gradientTransform="matrix(1 0 0 -1 0 148)">
	<stop  offset="0" style="stop-color:#8369FA"/>
	<stop  offset="1.000000e-04" style="stop-color:#5A41DC"/>
	<stop  offset="1" style="stop-color:#3D24C7"/>
</linearGradient>
<path class="st1" d="M56,60.5L0,32v24l56,28v14L0,70v20l56,26v14L0,105v18l56,23l63-30V30L56,60.5z"/>
<path class="st2" d="M57,59v87"/>
<g>
	<g>
		<path class="st3" d="M98.7,52l-6.1,27.7l-7.7,3.5l-3.6-14.8l-3.8,18.2l-7.9,3.6l-6.5-23l7.3-3.1L73.7,81l3.9-20l7.5-3.2L89.1,74
			l3.2-19.3L98.7,52z"/>
		<path class="st3" d="M111.7,89.3c1.5,1.1,2.2,3.3,2.2,6.6v14.3l-6.6,3.3v-13.4c0-1.7-0.4-2.8-1.1-3.3c-0.8-0.5-1.8-0.5-3.1,0.1
			c-1.3,0.6-2.3,1.6-3.1,2.9c-0.8,1.3-1.2,2.8-1.2,4.4v13.5l-6.9,3.4V87.9l6.9-3.2v11.5c0.7-1.4,1.6-2.8,2.8-4
			c1.2-1.2,2.5-2.2,4-2.9C108.2,88.1,110.2,88.1,111.7,89.3z"/>
	</g>
</g>
</svg>
