<svg width="104" height="104" viewBox="0 0 104 104" fill="none" xmlns="http://www.w3.org/2000/svg">
<path fill-rule="evenodd" clip-rule="evenodd" d="M52 104C80.7188 104 104 80.7188 104 52C104 23.2812 80.7188 0 52 0C23.2812 0 0 23.2812 0 52C0 80.7188 23.2812 104 52 104ZM46.24 25.976L48.64 64.376H53.44L56.032 26.936C56.032 25.016 55.808 23.48 55.36 22.328C54.976 21.112 54.432 20.248 53.728 19.736C53.024 19.16 52.16 18.872 51.136 18.872C50.112 18.872 49.216 19.16 48.448 19.736C47.744 20.248 47.2 21.048 46.816 22.136C46.432 23.16 46.24 24.44 46.24 25.976ZM46.912 82.424C48.064 83.512 49.408 84.056 50.944 84.056C52.48 84.056 53.824 83.512 54.976 82.424C56.128 81.272 56.704 79.96 56.704 78.488C56.704 76.952 56.128 75.608 54.976 74.456C53.824 73.304 52.48 72.728 50.944 72.728C49.408 72.728 48.064 73.304 46.912 74.456C45.824 75.608 45.28 76.952 45.28 78.488C45.28 80.024 45.824 81.336 46.912 82.424Z" fill="#EA2323"/>
</svg>
